<?xml version="1.0" encoding="UTF-8" standalone="no"?>
<!-- Created with Inkscape (http://www.inkscape.org/) -->

<svg
   width="50mm"
   height="100mm"
   viewBox="0 0 50 100"
   version="1.1"
   id="svg4036"
   xml:space="preserve"
   inkscape:version="1.2.2 (732a01da63, 2022-12-09)"
   sodipodi:docname="logoVector1.svg"
   xmlns:inkscape="http://www.inkscape.org/namespaces/inkscape"
   xmlns:sodipodi="http://sodipodi.sourceforge.net/DTD/sodipodi-0.dtd"
   xmlns="http://www.w3.org/2000/svg"
   xmlns:svg="http://www.w3.org/2000/svg"><sodipodi:namedview
     id="namedview4038"
     pagecolor="#ffffff"
     bordercolor="#000000"
     borderopacity="0.25"
     inkscape:showpageshadow="2"
     inkscape:pageopacity="0.0"
     inkscape:pagecheckerboard="0"
     inkscape:deskcolor="#d1d1d1"
     inkscape:document-units="mm"
     showgrid="false"
     inkscape:zoom="0.5"
     inkscape:cx="567"
     inkscape:cy="253"
     inkscape:window-width="1920"
     inkscape:window-height="1051"
     inkscape:window-x="-9"
     inkscape:window-y="-9"
     inkscape:window-maximized="1"
     inkscape:current-layer="layer1" /><defs
     id="defs4033" /><g
     inkscape:label="Слой 1"
     inkscape:groupmode="layer"
     id="layer1"><path
       style="fill:#000000;stroke-width:0.211667"
       d="m 19.816356,81.5872 c -0.34925,-0.16621 -2.63525,-1.66817 -5.08,-3.33767 -4.445,-3.03547 -4.445,-3.03547 -4.500116,-12.26015 -0.05128,-8.58207 -0.02916,-9.24734 0.3175,-9.55008 0.204938,-0.17898 2.229991,-1.59017 4.500116,-3.13599 2.270125,-1.54582 4.434003,-2.939043 4.808618,-3.096053 0.374615,-0.15701 1.165158,-0.28548 1.756762,-0.28548 0.591603,0 1.366761,0.15054 1.72257,0.33454 0.35581,0.184 2.537746,1.616213 4.84875,3.182693 2.311003,1.56648 4.483242,3.18956 4.827199,3.60684 0.343958,0.41728 0.729041,1.17037 0.85574,1.67354 0.140852,0.55938 0.230362,3.40802 0.230362,7.33127 0,3.52904 -0.09265,6.73949 -0.205895,7.13434 -0.113244,0.39485 -0.409939,1.01335 -0.659325,1.37444 -0.249388,0.36108 -0.847297,0.94776 -1.328689,1.30372 -0.481391,0.35596 -2.625644,1.8299 -4.765004,3.27543 -3.889745,2.62823 -3.889745,2.62823 -5.291667,2.68953 -0.895145,0.0391 -1.631465,-0.0479 -2.036921,-0.24092 z m 2.878832,-0.37426 c 0.395726,-0.13596 1.979187,-1.10671 3.518802,-2.15723 1.539614,-1.05052 2.775818,-1.93353 2.747118,-1.96222 -0.0287,-0.0287 -0.520567,0.10202 -1.093041,0.29048 -1.000679,0.32944 -1.094469,0.32423 -2.429618,-0.13491 -0.763818,-0.26267 -1.756598,-0.71692 -2.206178,-1.00943 -0.512507,-0.33345 -0.891936,-0.45732 -1.017192,-0.33206 -0.125256,0.12525 0.03886,0.29862 0.439983,0.46477 0.351866,0.14575 0.752348,0.40066 0.889957,0.56647 0.211698,0.25508 0.165032,0.26908 -0.303274,0.091 -0.304408,-0.11574 -0.961526,-0.41708 -1.460262,-0.66964 -0.498736,-0.25256 -1.716419,-1.03637 -2.70596,-1.74179 -0.989542,-0.70542 -2.989792,-2.22637 -4.445001,-3.37989 -1.455208,-1.15352 -2.957783,-2.43981 -3.339055,-2.85844 -0.693222,-0.76112 -0.693222,-0.76112 -0.635,2.82063 0.05822,3.58174 0.05822,3.58174 4.600753,6.71441 2.498392,1.72297 4.832017,3.21686 5.185834,3.31974 0.353816,0.10289 0.843401,0.19566 1.087967,0.20616 0.244565,0.0105 0.76844,-0.0922 1.164167,-0.22809 z m 5.101258,-4.27848 c 0.616866,-0.16078 1.470996,-0.43843 1.898063,-0.61699 0.427068,-0.17856 0.811886,-0.28925 0.855151,-0.24599 0.04327,0.0433 0.543039,-0.2744 1.110604,-0.70593 0.567567,-0.43152 1.230499,-1.16559 1.473183,-1.63126 0.377756,-0.72484 0.439839,-1.21213 0.431493,-3.38667 -0.0095,-2.47166 -0.02918,-2.57703 -0.731771,-3.91584 -0.493239,-0.93988 -1.294988,-1.92925 -2.530251,-3.12237 -1.808228,-1.74655 -1.808228,-1.74655 -1.865135,3.15811 -0.04031,3.47439 -0.132213,4.99542 -0.315146,5.21583 -0.142031,0.17114 -1.38164,1.06379 -2.754683,1.98368 -1.373046,0.91988 -2.438682,1.76597 -2.36808,1.88021 0.0706,0.11424 0.764317,0.53418 1.541591,0.93322 0.777274,0.39903 1.575264,0.73019 1.773314,0.73592 0.19805,0.006 0.8648,-0.12114 1.481667,-0.28192 z M 24.35137,73.72733 c 1.46391,-0.99337 2.831901,-1.93516 3.039984,-2.09287 0.337807,-0.25603 0.391289,-0.81641 0.499328,-5.2318 0.0976,-3.98879 0.06537,-5.01483 -0.166664,-5.30593 -0.158215,-0.19849 -1.430662,-1.27992 -2.827662,-2.40318 -1.397,-1.12327 -2.74344,-2.13802 -2.992088,-2.255 -0.386745,-0.18196 -0.899185,0.088 -3.545417,1.86755 -3.093329,2.08026 -3.093329,2.08026 -3.093329,7.40522 0,5.32498 0,5.32498 2.381251,7.11689 1.309687,0.98555 2.667,1.99439 3.01625,2.24187 0.34925,0.24748 0.723131,0.45298 0.830847,0.45667 0.107716,0.004 1.393592,-0.80605 2.8575,-1.79942 z M 18.00553,57.87069 c 3.057508,-2.11066 3.057508,-2.11066 1.907631,-2.63243 -0.632432,-0.28698 -1.72256,-0.58287 -2.422507,-0.65753 -1.254796,-0.13385 -1.261588,-0.1381 -0.4846,-0.30317 0.48041,-0.10206 1.199893,-0.0686 1.843099,0.0857 0.580287,0.13921 1.578889,0.56853 2.219114,0.95406 0.640226,0.38552 2.181996,1.48924 3.426155,2.4527 1.24416,0.96347 2.642195,2.11333 3.106746,2.55524 0.464549,0.44192 1.066151,0.94863 1.336891,1.12602 0.270739,0.1774 1.114078,0.90423 1.874087,1.61518 0.954009,0.89243 1.59557,1.72704 2.072189,2.69572 0.690355,1.40309 0.690355,1.40309 0.747839,-2.66729 0.05232,-3.70447 0.01985,-4.14416 -0.361135,-4.89095 -0.23024,-0.45131 -0.687754,-1.04686 -1.016694,-1.32344 -0.328943,-0.27658 -2.186555,-1.59825 -4.128029,-2.93705 -1.941475,-1.33879 -4.027221,-2.6961 -4.634995,-3.01625 -0.636945,-0.335513 -1.441775,-0.582083 -1.899974,-0.582083 -0.437213,0 -1.053528,0.0983 -1.36959,0.21848 -0.316062,0.12017 -2.39395,1.466423 -4.61753,2.991673 -2.223579,1.52525 -4.257184,2.96754 -4.519121,3.20508 -0.466486,0.42304 -0.47625,0.52778 -0.47625,5.10837 0,4.66181 0.0017,4.67894 0.53883,5.46942 0.296356,0.43613 1.225044,1.35939 2.06375,2.05168 1.52492,1.25872 1.52492,1.25872 1.630753,-4.07489 0.105833,-5.33359 0.105833,-5.33359 3.163341,-7.44424 z"
       id="path5992"
       sodipodi:nodetypes="cssssssssssssssscccsssssssssssssssssccsscsssssssssscssssssssssscsssssssssssssssssssssssssss" /><g
       id="g7713"
       transform="matrix(1,0,0,1.0321592,-45.045299,-74.315658)"><path
         style="fill:#e2b3d1;stroke-width:0.0396841"
         d="m 63.932134,110.0964 c -0.196286,-0.15563 -0.812417,-0.61422 -1.379899,-0.99052 -0.567483,-0.37629 -1.388944,-0.93962 -1.825469,-1.25184 -0.436525,-0.31221 -1.293702,-0.8973 -1.904837,-1.30018 -3.000582,-1.97812 -3.072839,-2.02998 -3.613961,-2.59374 -0.746639,-0.77787 -1.058768,-1.4768 -1.131038,-2.53262 -0.08188,-1.19624 -0.04363,-12.590507 0.04362,-12.993212 0.277231,-1.279579 1.07608,-2.214057 2.867008,-3.353767 0.26681,-0.169793 0.752977,-0.482912 1.080371,-0.69582 0.327394,-0.212908 0.568475,-0.359948 0.535736,-0.326756 -0.03274,0.03319 -0.554477,0.381984 -1.159416,0.775092 -2.235057,1.452406 -2.889062,2.143316 -3.255038,3.438715 -0.09805,0.347071 -0.154635,10.821001 -0.06924,12.817968 0.08976,2.09921 0.472113,2.58933 3.670173,4.70466 1.04766,0.69297 2.179195,1.45368 2.514522,1.69047 0.335328,0.23679 0.808561,0.57065 1.051629,0.7419 0.243069,0.17125 0.825886,0.56542 1.295151,0.87594 0.864324,0.57193 1.764897,1.25326 1.656537,1.25326 -0.0056,0 -0.179563,-0.10393 -0.375849,-0.25955 z m 1.196935,-5.65832 c -1.706599,-1.15378 -1.989236,-1.36038 -3.682393,-2.69172 -0.542579,-0.42663 -1.184063,-0.93064 -1.42552,-1.12001 l -0.439013,-0.34432 0.01,-5.206476 c 0.01166,-6.098759 -0.309478,-5.142741 0.832571,-5.841272 0.439006,-0.268516 1.506787,-1.017468 2.397151,-1.626309 3.097437,-2.11806 3.053024,-2.092027 3.262301,-1.912211 l 0.119052,0.102293 -0.125178,-0.08265 c -0.214937,-0.14191 -0.146531,-0.182874 -3.44658,2.063962 -0.916599,0.624065 -1.954206,1.327128 -2.305793,1.562361 l -0.560701,0.456634 -0.107692,0.695499 c -0.05892,0.38051 -0.02404,2.718118 -0.0279,5.215472 l -0.007,4.540647 1.087962,0.85059 c 2.405145,1.88038 2.947277,2.28016 4.468002,3.2948 l 0.721205,0.4812 0.361543,-0.2559 c 0.518576,-0.36705 0.864351,-0.5949 0.795356,-0.5241 -0.104301,0.10702 -1.121796,0.82266 -1.169653,0.82266 -0.02529,0 -0.366233,-0.21652 -0.757658,-0.48115 z"
         id="path7755"
         sodipodi:nodetypes="ssssssssssssssssssscssccssscssscsscsscssscc" /><path
         style="fill:#f4a076;stroke-width:0.0396841"
         d="m 74.239202,92.079914 c -0.14187,-0.11966 -0.29429,-0.253097 -0.33871,-0.296526 -0.04442,-0.04343 -0.09496,-0.07896 -0.112314,-0.07896 -0.03027,0 -0.202144,-0.136032 -0.554919,-0.439205 -0.09061,-0.07787 -0.280814,-0.228025 -0.422684,-0.333686 -0.141871,-0.105661 -0.314808,-0.245216 -0.384305,-0.310122 -0.07448,-0.06956 -0.151036,-0.10854 -0.186468,-0.09494 -0.03637,0.01396 -0.06873,-0.0041 -0.08193,-0.04569 -0.012,-0.03782 -0.07095,-0.09936 -0.131005,-0.13676 -0.251035,-0.156353 -0.468937,-0.388199 -0.340757,-0.362563 0.510485,0.102098 2.234795,-0.848495 3.307092,-1.823163 0.169065,-0.153671 0.684542,-0.558859 0.892893,-0.701853 0.109131,-0.0749 0.270978,-0.200645 0.359661,-0.279439 0.08868,-0.07879 0.249402,-0.194417 0.357156,-0.256941 0.107754,-0.06252 0.187835,-0.142635 0.195822,-0.161947 0.03951,-0.09554 0.490309,0.756478 0.609111,1.15648 0.104453,0.351688 0.192833,0.918374 0.222808,1.428627 0.01282,0.218263 0.03263,0.512918 0.04402,0.654788 0.01447,0.180228 0.0087,0.240056 -0.01927,0.198569 -0.03334,-0.04952 -0.06822,-0.03238 -0.210167,0.103266 -0.09361,0.08945 -0.330917,0.28447 -0.527354,0.433368 -0.196436,0.148898 -0.446446,0.344738 -0.555577,0.435199 -0.235979,0.195608 -0.615059,0.442512 -1.130997,0.736643 -0.207349,0.118208 -0.437529,0.255358 -0.51151,0.304778 -0.180488,0.120568 -0.185084,0.119326 -0.480593,-0.129919 z"
         id="path7753"
         sodipodi:nodetypes="sssssssssssssssssscsssssss" /><path
         style="fill:#f59972;stroke-width:0.0396841"
         d="m 73.404963,91.486164 c -0.610697,-0.491091 -1.128199,-0.892892 -1.150004,-0.892892 -0.02181,0 -0.03965,-0.01786 -0.03965,-0.03968 0,-0.06234 0.103757,-0.04641 0.163054,0.02504 0.02954,0.0356 0.196917,0.172649 0.371937,0.304551 0.17502,0.131902 0.392349,0.303676 0.482955,0.381718 0.347435,0.299262 0.550834,0.439527 0.581228,0.439527 0.01735,0 0.04158,0.03563 0.08601,0.07919 0.408733,0.400751 0.618032,0.530166 0.747504,0.4622 0.528242,-0.277296 1.447011,-0.854392 1.714306,-1.076786 0.109131,-0.0908 0.359141,-0.286916 0.555577,-0.435814 0.196437,-0.148898 0.433745,-0.343914 0.527354,-0.433368 0.172198,-0.164558 0.245271,-0.159899 0.245271,0.01564 0,0.04537 -0.0076,0.04754 -0.03199,0.0091 -0.02329,-0.0367 -0.09344,0.0034 -0.257943,0.147323 -0.814959,0.713152 -2.592238,1.907127 -2.838835,1.907127 -0.02553,0 -0.546075,-0.401801 -1.156773,-0.892892 z m -1.824595,-1.527838 c -0.0865,-0.0277 -0.07888,-0.03236 0.05953,-0.03634 0.737794,-0.02122 1.760967,-0.56144 3.035834,-1.602879 1.261315,-1.03037 2.008471,-1.703314 2.107862,-1.610222 0.09939,0.09309 -0.0473,0.138392 -0.147991,0.191807 -0.100689,0.05342 -0.265874,0.169461 -0.367078,0.257878 -0.101205,0.08842 -0.273297,0.22225 -0.382428,0.297404 -0.209391,0.144198 -0.725383,0.55006 -0.892893,0.702318 -1.18201,1.074392 -2.880838,1.970405 -3.412832,1.800031 z"
         id="path7751"
         sodipodi:nodetypes="sssssssssssssscsssssszssssss" /><path
         style="fill:#ee7051;stroke-width:0.0396841"
         d="m 72.225039,94.571603 c -0.0064,-2.629701 0.0037,-3.978331 0.02992,-3.978331 0.02181,0 0.506234,0.393533 1.116931,0.884624 0.610698,0.491091 1.164318,0.90116 1.189846,0.90116 0.246691,0 2.106586,-1.276681 2.922061,-1.990285 0.318381,-0.278608 0.215623,-0.529815 0.259889,5.780117 0.03315,1.722331 -0.494528,-0.189215 -0.584765,-0.377001 -0.712964,-1.483231 -1.649532,-2.685615 -2.590535,-3.325783 -0.20582,-0.140019 -0.74658,-0.54901 -1.915622,-1.494182 -0.209218,-0.169154 -0.35859,-0.299284 -0.372359,-0.299284 -0.01377,0 -0.02967,1.772391 -0.03534,3.938647 l -0.01031,3.938647 z m -1.24154,-5.076554 c -1.23414,-1.057295 -1.889199,-1.599284 -2.677578,-2.2154 -0.279288,-0.218262 -0.554148,-0.43851 -0.610801,-0.48944 -0.181686,-0.163331 0.191375,0.107465 0.635179,0.461063 0.226961,0.180829 0.50024,0.395123 0.607288,0.476209 0.107048,0.08109 0.286478,0.22779 0.398735,0.326008 0.922891,0.807479 2.148665,1.807794 2.228006,1.818205 0.617397,0.08102 1.73866,-0.51625 3.224717,-1.717728 0.951897,-0.769608 1.288719,-1.026704 1.622862,-1.238729 0.29457,-0.186915 0.316674,-0.224603 0.224821,-0.301458 -0.153615,-0.12853 -1.503349,-1.147142 -1.742129,-1.31125 -0.53096,-0.364917 -1.391309,-0.928271 -1.516571,-0.993046 -0.06924,-0.03581 -0.136655,-0.08251 -0.149806,-0.103792 -0.121411,-0.196447 2.334973,1.468724 3.282895,2.252389 0.401827,0.332198 0.341179,0.231796 -0.119052,0.5338 -0.35221,0.231119 -0.770626,0.554677 -1.716337,1.32723 -1.07038,0.874394 -1.85992,1.342005 -2.56656,1.520064 -0.558258,0.14067 -0.560633,0.139944 -1.125669,-0.344125 z"
         id="path7749"
         sodipodi:nodetypes="cssssccssssccssssssssssssssssss" /><path
         style="fill:#fa6d35;stroke-width:0.0396841"
         d="m 69.254994,87.982879 c -0.0676,-0.05938 -0.210462,-0.174312 -0.317473,-0.255398 -0.107012,-0.08109 -0.380508,-0.29538 -0.607771,-0.476209 -0.227262,-0.180829 -0.507421,-0.400211 -0.622574,-0.487516 -0.115153,-0.08731 -0.313155,-0.23788 -0.440004,-0.33461 -0.839075,-0.639849 -1.183556,-0.883769 -1.413548,-1.000906 -0.09149,-0.0466 -0.219919,-0.124611 -0.285398,-0.173366 -0.143322,-0.106717 -0.771519,-0.483389 -1.289733,-0.773337 -0.619142,-0.346418 -0.572007,-0.305444 -0.493453,-0.428953 0.663665,-1.043456 1.596035,-1.906711 2.748162,-2.544442 0.277296,-0.153491 0.264682,-0.336351 0.547599,-1.128314 0.07132,-0.263464 -0.419186,-0.30033 0.08655,-0.202011 0.27543,0.128869 0.335252,0.19803 0.460753,0.283309 1.608479,0.955125 2.827639,1.865536 4.249902,2.856966 0.130958,0.09412 0.470257,0.32297 0.753998,0.508565 0.283742,0.185596 0.56499,0.370238 0.624996,0.410315 l 0.109102,0.07287 -0.565469,0.371907 c -1.78931,1.176823 -3.410955,2.772884 -3.41571,3.361821 -2.39e-4,0.02728 -0.0019,0.04908 -0.0037,0.04844 -0.0018,-6.39e-4 -0.05862,-0.04975 -0.126213,-0.109131 z"
         id="path7747"
         sodipodi:nodetypes="ssssssssssccccsscsssss" /><path
         style="fill:#e3169b;stroke-width:0.0396841"
         d="M 55.915052,97.11271 C 55.825803,96.984273 55.21741,95.908784 54.91442,95.343842 l -0.233176,-0.388521 0.09688,-0.182353 c 0.373729,-0.703434 1.547456,-1.595989 2.47628,-2.201686 0.607948,-0.39645 0.557996,-0.537426 1.498075,-0.927273 l 0.803603,-0.333251 -6.07e-4,1.933014 c -3.18e-4,1.063157 -0.01521,1.909999 -0.03306,1.88187 -0.02419,-0.03813 -0.05935,-0.04091 -0.138181,-0.01094 -0.144813,0.05506 -1.086085,0.525127 -1.322485,0.660446 -0.366184,0.209609 -1.266155,0.7986 -1.421138,0.930071 -0.0662,0.05616 -0.170947,0.133947 -0.232767,0.172866 -0.06182,0.03892 -0.180721,0.132483 -0.264222,0.207922 L 55.9918,97.223168 55.91505,97.112713 Z"
         id="path7745"
         sodipodi:nodetypes="sscssscsssssssccs" /><path
         style="fill:#fc1d6e;stroke-width:0.0396841"
         d="m 59.015745,99.97176 c -1.289668,-1.021293 -2.653029,-2.334127 -2.923706,-2.621523 l -0.11074,-0.117579 0.157075,-0.141908 c 0.08639,-0.07805 0.207656,-0.17375 0.269476,-0.212668 0.06182,-0.03892 0.166566,-0.116709 0.232768,-0.172866 0.155174,-0.131634 1.054882,-0.720408 1.422143,-0.93066 0.26137,-0.149631 1.253511,-0.640451 1.363029,-0.674301 0.139833,-0.04322 0.143017,0.02443 0.121611,2.584589 -0.02325,2.780856 0.07043,2.763706 -0.531656,2.286916 z"
         id="path7743"
         sodipodi:nodetypes="sscsssssss" /><path
         style="fill:#f64e2c;stroke-width:0.0396841"
         d="m 70.16258,106.31851 c -0.850181,-0.0894 -1.767107,-0.42363 -3.025286,-1.6729 l -0.269624,-0.26771 0.739222,-0.51194 c 0.406572,-0.28157 1.176739,-0.80466 1.711482,-1.16243 0.534743,-0.35777 1.010752,-0.68572 1.057798,-0.72878 0.08525,-0.078 0.08563,-0.078 0.111874,0.005 0.01448,0.0456 0.06709,0.13199 0.116901,0.19189 0.703429,0.84597 1.461376,2.52671 1.590164,3.52618 0.02614,0.20284 0.02614,0.24418 -0.13195,0.30744 -0.352373,0.14099 -1.333747,0.38517 -1.574106,0.3567 -0.119967,-0.0479 -0.226446,-0.0151 -0.326475,-0.0434 z m 0.97206,-16.748171 c -0.687395,-0.578117 -1.478456,-1.248834 -1.62731,-1.379746 l -0.148358,-0.130477 0.06034,-0.171971 c 0.245152,-0.69865 1.385189,-1.791547 2.518208,-2.616943 0.361251,-0.26317 1.310301,-0.94611 1.394985,-0.978606 0.09738,-0.03737 1.320221,0.818211 2.632951,1.799324 0.834931,0.624015 0.875767,0.564994 0.524966,0.791927 -0.373763,0.241786 -0.792166,0.542362 -1.496886,1.124173 -1.512009,1.248301 -2.315497,1.748937 -3.248751,1.880961 -0.163789,0.02317 -0.251443,-0.01696 -0.610149,-0.318642 z m -7.171473,-5.228052 c -0.349276,-0.188197 -0.344668,-0.176699 -0.176575,-0.440566 0.608633,-0.955416 1.515418,-1.784836 2.656031,-2.429423 l 0.279134,-0.157745 0.177186,-0.529495 c 0.176344,-0.52698 0.155941,-0.626407 0.247886,-0.613572 -0.03096,0.281572 -0.35364,1.192732 -0.462018,1.252073 -1.215357,0.665444 -2.06089,1.40618 -2.752421,2.411282 -0.237842,0.345691 -0.239708,0.332853 0.07121,0.489802 0.129368,0.0653 0.235214,0.127407 0.235214,0.138007 0,0.02833 0.0016,0.02905 -0.275642,-0.120363 z"
         id="path7741"
         sodipodi:nodetypes="cscsssccssccsscssssssssssscscsssssss" /><path
         style="fill:#f63b2c;stroke-width:0.0396841"
         d="m 58.444888,84.254269 c 0.0028,-0.0044 0.05808,-0.03423 0.129016,-0.0646 0.07093,-0.03037 0.682566,-0.443552 1.35918,-0.918194 0.676614,-0.474643 1.605222,-1.112955 2.063573,-1.418472 0.458352,-0.305518 0.878011,-0.585921 0.932577,-0.62312 0.118743,-0.08095 0.917808,-0.523277 1.396839,-0.813447 0.189406,-0.114731 -3.72e-4,-0.0045 0.164948,-0.103891 1.336244,-0.801981 2.470317,-0.223187 2.646794,-0.146563 0.01029,0.0045 -0.01854,0.02245 -0.03867,0.06035 -0.02013,0.0379 -0.08732,0.303023 -0.190279,0.580475 L 66.720111,81.315456 66.4418,81.47275 c -1.137383,0.642816 -2.047067,1.474259 -2.651919,2.42383 l -0.145348,0.228183 -0.704885,0.0036 c -0.387688,0.002 -1.017229,0.120669 -1.464667,0.142459 -0.824006,0.04013 -3.11345,0.116786 -3.071434,0.04958 z"
         id="path7739"
         sodipodi:nodetypes="sssssscssscssccsss" /><path
         style="fill:#cc0284;stroke-width:0.0396841"
         d="m 63.857266,109.96577 c -0.109131,-0.0894 -0.615937,-0.47184 -1.02518,-0.74385 -0.409242,-0.27202 -0.752345,-0.50722 -0.752345,-0.52519 0,-0.10441 2.890749,-2.37815 3.715986,-2.92178 0.146951,-0.0968 0.327215,-0.22179 0.400586,-0.27776 0.192494,-0.14682 0.271044,-0.13102 0.800541,0.16105 0.261915,0.14447 0.735148,0.39628 1.051629,0.55958 0.31648,0.1633 0.593066,0.31362 0.614635,0.33404 0.04486,0.0425 -0.06467,0.13576 -0.57262,0.48769 -0.186805,0.12943 -0.547805,0.38837 -0.802221,0.57542 -0.254416,0.18705 -0.599769,0.43831 -0.767452,0.55836 -0.167684,0.12004 -0.490982,0.35655 -0.718442,0.52558 -0.22746,0.16902 -0.480344,0.35244 -0.561965,0.4076 -0.08162,0.0551 -0.23769,0.17292 -0.346821,0.26171 -0.831691,0.67664 -0.784557,0.80372 -1.036331,0.59755 z"
         id="path7737"
         sodipodi:nodetypes="sssssssssssscss" /><path
         style="fill:#a11586;stroke-width:0.0396841"
         d="m 61.846582,108.55349 c -0.331646,-0.22956 -0.286815,-0.22951 0.0687,8e-5 0.1048,0.0677 0.04911,0.0984 1.329354,-0.9759 1.140331,-0.95687 3.068919,-2.40503 3.201364,-2.35186 0.07749,0.0311 0.228528,0.24351 0.163978,0.24561 -0.03917,-0.006 -0.337214,-0.0395 -0.413664,0.0257 -0.07023,0.0599 -0.253635,0.18095 -0.400586,0.27776 -0.843854,0.55589 -3.598443,2.78978 -3.660175,2.87792 -0.04961,0.0708 -0.116024,0.0373 -0.307574,-0.0953 z m -7.18387,-13.609278 c -0.123636,-0.322191 1.500942,-1.832498 2.909168,-2.704541 0.09822,-0.06082 0.187507,-0.121308 0.19842,-0.134415 0.05189,-0.06232 1.60657,-0.837355 1.679694,-0.837355 0.05213,0 0.06565,-0.06132 0.07654,-0.347235 l 0.01323,-0.347236 0.0082,0.369142 c 0.0082,0.369142 0.0082,0.369142 -0.112505,0.411207 -1.592389,0.72992 -4.514156,2.796076 -4.715637,3.54944 -0.02482,0.0928 -0.03452,0.09976 -0.05707,0.04099 z"
         id="path7735"
         sodipodi:nodetypes="cssscssscccsssscscscc" /><path
         style="fill:#9e1a79;stroke-width:0.0396841"
         d="m 64.184635,110.19434 c -0.248095,-0.16156 -0.293043,-0.0615 0.273057,-0.48786 0.202618,-0.15258 0.461554,-0.3463 0.570919,-0.43652 0.109365,-0.0902 0.362217,-0.28013 0.561892,-0.422 0.199675,-0.14187 0.463855,-0.33257 0.587068,-0.42377 0.123212,-0.0912 0.375813,-0.27406 0.561336,-0.40635 0.185523,-0.1323 0.564563,-0.40591 0.842309,-0.60802 0.277747,-0.20212 0.640312,-0.46288 0.8057,-0.57946 0.373069,-0.26298 0.387992,-0.23357 -0.300252,-0.59193 -0.315654,-0.16436 -0.814752,-0.4302 -1.109106,-0.59075 -0.294355,-0.16056 -0.557758,-0.29192 -0.585341,-0.29192 -0.02758,0 -0.05015,-0.0179 -0.05015,-0.0397 0,-0.0828 0.262241,0.0275 0.752747,0.31674 0.114387,0.0674 0.523085,0.28519 0.908217,0.48389 0.753996,0.38899 0.811457,0.42595 0.768253,0.49413 -0.02349,0.0371 -0.711084,0.54032 -2.158097,1.57954 -0.719004,0.51637 -1.416378,1.0335 -1.798958,1.33401 -0.240088,0.18858 -0.485634,0.37452 -0.545656,0.41321 -0.131708,0.0849 -0.135612,0.12712 -0.02285,0.24715 0.107129,0.11403 0.07758,0.11867 -0.06109,0.01 z m -9.54121,-15.219812 c -0.02774,-0.04957 -0.08647,-0.06037 -0.26984,-0.0496 l -0.23438,0.01376 v -2.664975 c 0,-1.465736 0.01372,-2.656492 0.03049,-2.646125 0.03725,0.02303 0.31944,-0.147462 1.259247,-0.760793 0.457215,-0.298386 0.81011,-0.519775 0.952418,-0.597503 0.07639,-0.04172 0.17461,-0.105038 0.218262,-0.140697 0.09531,-0.07786 0.857231,-0.494755 1.190524,-0.651416 0.130957,-0.06155 0.264891,-0.133386 0.29763,-0.159624 0.03274,-0.02624 0.130958,-0.07026 0.218263,-0.09783 0.08731,-0.02757 0.239097,-0.08996 0.337315,-0.138645 0.258762,-0.128276 0.79288,-0.409056 0.834521,-0.38332 0.05706,0.03526 0.07616,0.627138 0.08241,1.726524 0.0032,0.564068 0.01957,1.086505 0.03637,1.160971 0.01638,0.169902 0.06001,0.312432 0.02957,0.416752 0.0074,0.611257 -0.05496,0.788875 -0.06863,1.30923 -0.416139,0.179005 -1.264123,0.543252 -1.956752,0.924302 -1.451783,0.899016 -3.091006,2.414442 -2.925878,2.722986 0.05009,0.0936 0.02036,0.108698 -0.03152,0.01601 z"
         id="path7733"
         sodipodi:nodetypes="cssssssssssscssssssccsscsssssssssssccccsss" /><path
         style="fill:#db2a2a;stroke-width:0.0396841"
         d="m 72.18752,105.91126 c 0.08284,-0.0531 -0.01211,-0.21431 -0.137032,-0.71424 -0.25548,-1.02247 -0.689271,-1.93759 -1.38809,-2.90851 -0.30993,-0.43061 -0.262232,-0.36791 0.373214,-0.80195 0.566757,-0.38712 0.932482,-0.72104 1.056968,-0.96506 0.127502,-0.24992 0.168794,-1.761045 0.165955,-6.0733 l -0.0025,-3.78426 0.187975,0.117642 c 0.112328,0.0703 0.330837,0.268948 0.505447,0.413454 0.17461,0.144506 0.442192,0.340461 0.57542,0.458817 l 0.257946,0.229152 -0.138894,0.124924 c -1.43233,1.288255 1.706305,5.379028 3.611253,4.706764 0.188915,-0.06667 0.216997,-0.08987 0.208847,-0.172521 -0.0082,-0.08276 -0.0039,-0.08624 0.03174,-0.02605 0.02263,0.0382 0.18761,0.08805 0.23777,0.08805 0.01054,0.312125 0.07337,3.600798 -0.10142,4.981598 -0.192824,1.52321 -0.741893,2.26902 -2.559554,3.47669 -0.337206,0.22404 -0.465884,0.2864 -0.67463,0.3269 -0.554365,0.10755 -1.876361,0.43238 -2.202468,0.54117 -0.07298,0.0243 -0.07362,0.0228 -0.008,-0.0193 z"
         id="path7731"
         sodipodi:nodetypes="cssssscssscsscscsssccc" /><path
         style="fill:#f10235;stroke-width:0.0396841"
         d="m 59.563073,89.529627 c -0.0091,-0.03585 0.07184,-0.476665 0.07117,-0.993253 -6.69e-4,-0.516588 -0.01902,-1.162475 -0.04078,-1.435303 -0.02176,-0.272828 -0.06422,-0.851146 -0.09437,-1.28515 -0.06374,-0.917692 -0.02519,-0.856299 -0.538269,-0.857345 -0.6229,-0.0013 -1.387584,-0.04991 -1.364778,-0.08681 0.02753,-0.04455 0.670859,-0.476903 0.836992,-0.562508 0.235435,-0.121314 2.145254,-0.09581 2.192814,0.02929 0.05926,0.155861 0.510304,0.935367 0.725909,1.25453 0.403067,0.596664 0.852245,1.023499 1.709641,1.75372 0.153825,0.131009 0.180205,-2.59e-4 -1.428188,1.076264 -0.742093,0.496696 -1.471301,0.98952 -1.606169,1.084446 -0.278645,0.196121 -0.380379,0.352518 -0.402583,0.264753 z"
         id="path7729"
         sodipodi:nodetypes="sssscsssssssss" /><path
         style="fill:#c2194c;stroke-width:0.0396841"
         d="m 59.585866,89.553404 c -0.0107,-0.07195 -0.02214,-0.586188 -0.02543,-1.142758 -0.01079,-1.825562 0.01322,-1.790747 -0.917083,-1.329568 -0.09822,0.04869 -0.25001,0.111079 -0.337315,0.138645 -0.08731,0.02756 -0.185523,0.07159 -0.218263,0.09783 -0.03274,0.02624 -0.166673,0.09807 -0.29763,0.159624 -0.333293,0.156661 -1.095212,0.573558 -1.190524,0.651416 -0.04365,0.03566 -0.14187,0.09897 -0.218262,0.140697 -0.142308,0.07773 -0.495203,0.299117 -0.952418,0.597503 -0.367468,0.239814 -0.907191,0.584255 -1.080669,0.689662 -0.224978,0.136699 -0.243478,0.100184 -0.216514,-0.427355 0.06781,-1.326748 0.677287,-2.360083 1.95197,-3.309492 0.59502,-0.443182 1.653221,-1.111761 1.535891,-0.970387 -0.0511,0.06157 0.514282,0.107674 1.341207,0.10936 0.513084,0.001 0.47454,-0.06035 0.538212,0.857345 0.03011,0.434004 0.07209,1.012322 0.09329,1.28515 0.06819,0.877658 0.06282,2.918223 -0.0065,2.452333 z"
         id="path7727" /><path
         style="fill:#771689;stroke-width:0.0396841"
         d="m 60.591178,107.69098 c -0.34922,-0.25225 -0.730182,-0.50914 -0.796052,-0.54308 -0.256568,-0.13218 -3.564856,-2.37297 -3.671716,-2.48093 -0.06116,-0.0618 0.05046,0.0107 1.921557,1.24768 1.673386,1.10628 1.716069,1.12711 1.801393,1.07078 0.04906,-0.0324 0.287129,-0.17347 0.483565,-0.34637 0.340359,-0.29957 1.217207,-1.0154 1.450454,-1.18409 0.06036,-0.0436 0.257292,-0.18652 0.437634,-0.31748 0.475341,-0.34517 0.908189,-0.64973 1.415613,-0.99604 0.530767,-0.36225 0.518903,-0.31308 0.138895,-0.57563 -0.436025,-0.30124 -1.323861,-0.96643 -1.974284,-1.47918 -0.305568,-0.24089 -0.70639,-0.55482 -0.890717,-0.69761 -0.184326,-0.1428 -0.407549,-0.32765 -0.496051,-0.41078 -0.0885,-0.0831 0.303392,0.21238 0.870874,0.65669 1.200275,0.93975 1.820987,1.40884 2.400889,1.81441 0.229175,0.16027 0.444177,0.32175 0.477781,0.35884 0.148902,0.16433 1.687765,1.15434 1.770668,1.13914 0.05135,-0.009 0.07892,0.002 0.06881,0.0282 -0.0093,0.0242 0.09847,0.0849 0.202553,0.15993 l 0.200801,0.12429 -0.481764,0.31793 c -0.680062,0.4488 -2.183882,1.59463 -2.675379,2.00894 -0.395622,0.3335 -1.233852,1.02322 -1.243535,1.02322 -0.127312,-0.0108 -0.963653,-0.59647 -1.411989,-0.91886 z"
         id="path7725"
         sodipodi:nodetypes="cssssscsssssssssccscsscc" /><path
         style="fill:#9a212a;stroke-width:0.0396841"
         d="m 69.933477,106.29102 c -0.78414,-0.15611 -1.429347,-0.51237 -2.645498,-1.46074 -0.28117,-0.21926 -0.50231,-0.40756 -0.49142,-0.41845 0.02253,-0.0225 0.01282,-0.0295 0.4384,0.3156 1.916173,1.55393 3.089529,1.8751 4.74225,1.29804 0.463373,-0.16179 2.344282,-0.63003 2.530808,-0.63003 0.154911,0 -0.03345,0.0557 -0.671267,0.1986 -1.013913,0.22711 -1.460897,0.34178 -1.700805,0.43635 -0.653592,0.25762 -1.634506,0.3737 -2.202468,0.26063 z m 6.324652,-9.555363 c -1.701792,-0.549907 -3.484359,-3.265805 -2.901188,-4.39168 0.112592,-0.217371 0.350056,-0.44113 0.417247,-0.44113 0.186538,0 1.668882,1.202362 2.250778,1.965523 0.873655,1.145805 1.546566,2.659014 1.441625,2.757883 -0.07217,0.068 -0.266773,0.135818 -0.494367,0.160027 -0.253359,0.02695 -0.54563,0.0038 -0.714095,-0.05062 z"
         id="path7723"
         sodipodi:nodetypes="ssscsscssssssssss" /><path
         style="fill:#301b71;stroke-width:0.0396841"
         d="m 58.742561,106.37703 c -0.567483,-0.37654 -1.451446,-0.96024 -1.964363,-1.29711 -1.646971,-1.08169 -2.304439,-1.8753 -2.565978,-3.09731 -0.06651,-0.31077 -0.07223,-0.59811 -0.0726,-3.650939 l -4.11e-4,-3.313622 0.0899,-0.0053 c 0.07478,-0.0044 0.07645,-0.0023 0.0099,0.01268 -0.1735,0.03896 -0.101677,6.590571 0.07931,7.234951 0.216842,0.77202 0.929473,1.73322 1.658689,2.23726 l 0.095,0.0674 0.636188,-0.32152 c 2.333424,-1.64074 2.710593,-1.96547 3.472891,-2.8363 0.316178,-0.36119 0.282109,-0.35441 -0.248026,-0.75659 -0.405676,-0.30776 -0.554507,-0.43597 -0.406762,-0.3504 0.112225,0.065 0.69719,0.51582 0.865224,0.66681 0.09937,0.0893 0.331523,0.27918 0.515894,0.42198 0.184371,0.14279 0.585229,0.45672 0.890797,0.69761 0.650423,0.51275 1.538259,1.17794 1.974284,1.47918 0.380008,0.26255 0.391872,0.21338 -0.138895,0.57563 -0.507424,0.34631 -0.940272,0.65087 -1.415613,0.99604 -0.180342,0.13096 -0.377278,0.27383 -0.437634,0.31748 -0.219969,0.15909 -1.100995,0.87485 -1.390928,1.13002 -0.658731,0.57973 -0.413006,0.61076 -1.64689,-0.20796 z"
         id="path7721"
         sodipodi:nodetypes="cssscscssccssssssssssscc" /><path
         style="fill:#630f48;stroke-width:0.0396841"
         d="m 64.233493,110.28641 c -0.06507,-0.0709 -0.100361,-0.21199 -0.100361,-0.23247 0,-0.0205 0.07542,-0.0777 0.13544,-0.11635 0.06002,-0.0387 0.305568,-0.22463 0.545656,-0.41321 0.38258,-0.30051 1.079954,-0.81764 1.798958,-1.33401 1.447013,-1.03922 2.134609,-1.54248 2.158097,-1.57954 0.0432,-0.0682 -0.01426,-0.10514 -0.768253,-0.49413 -0.385132,-0.1987 -0.794174,-0.41665 -0.908983,-0.48434 -0.114808,-0.0677 -0.335436,-0.18628 -0.490283,-0.26351 -0.33639,-0.16779 -0.618686,-0.34003 -0.618784,-0.37755 -2.38e-4,-0.0893 0.85394,-0.64257 0.913155,-0.59116 0.03429,0.0298 0.131458,0.22371 0.316982,0.37034 0.185523,0.14662 0.37303,0.30418 0.416683,0.34003 1.374343,1.12863 2.708009,1.36314 4.047778,0.94734 0.735794,-0.22835 1.013625,-0.3032 1.706416,-0.45971 0.196437,-0.0444 0.508742,-0.11504 0.694014,-0.15704 0.185271,-0.042 0.341125,0.0437 0.346342,0.0489 0.0052,0.005 -0.499698,0.2487 -0.733697,0.39973 -0.630206,0.40677 -1.216417,0.95274 -1.794813,1.35727 -2.000917,0.95914 -4.046628,3.49725 -6.2811,3.49777 -0.715098,-0.0312 -1.335505,-0.40633 -1.335505,-0.40633 z"
         id="path7719"
         sodipodi:nodetypes="sssssssssssscssscacccs" /><path
         style="fill:#82022a;stroke-width:0.0396841"
         d="m 62.893991,87.313271 c -0.303188,-0.2771 -1.207346,-1.064053 -1.452101,-1.472167 -0.521182,-0.869036 -1.018679,-1.593796 -0.950852,-1.635715 0.0594,-0.03671 1.50875,-0.08973 2.431374,-0.08973 h 0.69477 l 0.340577,0.183633 c 0.766762,0.413425 2.248988,1.271728 2.037793,1.206831 -0.499144,0.419477 -2.111211,1.291571 -2.749107,1.869713 -0.134538,0.07473 -0.171291,0.04879 -0.352409,-0.06261 z"
         id="path7717"
         sodipodi:nodetypes="cssscscccc" /><path
         style="fill:#041034;stroke-width:0.0396841"
         d="m 55.857732,104.41892 c -0.735325,-0.58616 -1.332887,-1.41983 -1.539673,-2.15852 -0.12998,-0.46432 -0.156757,-1.19881 -0.157931,-4.332002 l -0.0135,-3.011689 0.316226,-0.0059 c 0.255305,-0.0047 0.239879,0.003 0.572374,0.621728 0.865151,1.609856 0.835388,1.630806 1.534886,2.24637 0.938913,0.826251 1.820232,1.750214 3.491926,2.970423 0.420977,0.30728 0.428626,0.30316 0.119053,0.65787 -0.691477,0.7923 -1.099538,1.29224 -3.465239,2.83127 -0.72595,0.37211 -0.55478,0.41041 -0.858122,0.18045 z"
         id="path7715"
         sodipodi:nodetypes="csscssssscc" /></g></g></svg>
